<svg width="20" height="19" viewBox="0 0 20 19" fill="none" xmlns="http://www.w3.org/2000/svg">
<path d="M10.0005 0C15.5255 0 20.0005 4.36167 20.0005 9.74107C20.0005 14.0457 17.1355 17.6962 13.163 18.9832C12.663 19.0749 12.4797 18.7734 12.4797 18.5148C12.4797 18.2835 12.488 17.6706 12.4922 16.8585C15.2738 17.4459 15.8605 15.5517 15.8605 15.5517C16.3155 14.4274 16.973 14.1267 16.973 14.1267C17.8788 13.5228 16.903 13.5352 16.903 13.5352C15.8988 13.603 15.3713 14.5389 15.3713 14.5389C14.4797 16.0283 13.0305 15.5979 12.4588 15.3493C12.3688 14.719 12.1113 14.2903 11.8255 14.0466C14.0463 13.8029 16.3805 12.9652 16.3805 9.23304C16.3805 8.16988 15.993 7.30085 15.3513 6.61933C15.4638 6.37316 15.8013 5.3827 15.2638 4.04116C15.2638 4.04116 14.4263 3.78012 12.5138 5.03988C11.7138 4.82345 10.8638 4.71606 10.0138 4.7111C9.16384 4.71606 8.31384 4.82345 7.51384 5.03988C5.61384 3.78012 4.77635 4.04116 4.77635 4.04116C4.23885 5.3827 4.57635 6.37316 4.67635 6.61933C4.03885 7.30085 3.65135 8.16988 3.65135 9.23304C3.65135 12.9752 5.98784 13.7987 8.21284 14.0383C7.86284 14.3307 7.53784 14.928 7.53784 15.8408C7.53784 17.1444 7.55034 18.1918 7.55034 18.5082C7.55034 18.7635 7.37534 19.0683 6.86284 18.9708C2.86201 17.692 0.000488895 14.0391 0.000488707 9.74107C0.000488472 4.36167 4.47701 -6.7851e-07 9.99951 -4.37114e-07L10.0005 0Z" fill="#212121"/>
</svg>